<svg width="40" height="40" viewBox="0 0 40 40" fill="none" xmlns="http://www.w3.org/2000/svg">
<rect width="40" height="40" rx="20" fill="#C1C4D2"/>
<path d="M27.7337 25.6133C27.3127 24.616 26.7016 23.71 25.9346 22.9459C25.17 22.1797 24.2642 21.5687 23.2672 21.1468C23.2583 21.1424 23.2494 21.1401 23.2404 21.1357C24.6311 20.1312 25.5351 18.495 25.5351 16.6491C25.5351 13.591 23.0574 11.1133 19.9994 11.1133C16.9413 11.1133 14.4636 13.591 14.4636 16.6491C14.4636 18.495 15.3677 20.1312 16.7583 21.1379C16.7494 21.1424 16.7404 21.1446 16.7315 21.1491C15.7315 21.5709 14.8342 22.1758 14.0641 22.9482C13.2978 23.7128 12.6869 24.6186 12.265 25.6156C11.8505 26.5916 11.627 27.638 11.6065 28.6982C11.6059 28.722 11.6101 28.7457 11.6188 28.7679C11.6275 28.7901 11.6406 28.8103 11.6572 28.8273C11.6738 28.8444 11.6937 28.8579 11.7157 28.8672C11.7377 28.8764 11.7612 28.8812 11.7851 28.8812H13.1244C13.2226 28.8812 13.3007 28.8031 13.3029 28.7071C13.3476 26.9839 14.0395 25.37 15.2628 24.1468C16.5284 22.8812 18.2092 22.1848 19.9994 22.1848C21.7895 22.1848 23.4703 22.8812 24.736 24.1468C25.9592 25.37 26.6511 26.9839 26.6958 28.7071C26.698 28.8053 26.7761 28.8812 26.8744 28.8812H28.2136C28.2375 28.8812 28.2611 28.8764 28.283 28.8672C28.305 28.8579 28.3249 28.8444 28.3415 28.8273C28.3582 28.8103 28.3712 28.7901 28.3799 28.7679C28.3886 28.7457 28.3928 28.722 28.3922 28.6982C28.3699 27.6312 28.1489 26.5933 27.7337 25.6133ZM19.9994 20.4883C18.9748 20.4883 18.0105 20.0888 17.2851 19.3633C16.5596 18.6379 16.1601 17.6736 16.1601 16.6491C16.1601 15.6245 16.5596 14.6602 17.2851 13.9348C18.0105 13.2093 18.9748 12.8098 19.9994 12.8098C21.0239 12.8098 21.9882 13.2093 22.7136 13.9348C23.4391 14.6602 23.8386 15.6245 23.8386 16.6491C23.8386 17.6736 23.4391 18.6379 22.7136 19.3633C21.9882 20.0888 21.0239 20.4883 19.9994 20.4883Z" fill="white"/>
</svg>
