<svg width="142" height="36" viewBox="0 0 142 36" fill="none" xmlns="http://www.w3.org/2000/svg">
<g clip-path="url(#clip0_508_83)">
<path d="M11.4351 35.0133V30.4715C11.4351 30.4715 -2.05329 28.8 0.803448 16.096C2.50775 8.51276 6.38708 5.82194 12.2466 5.02284C24.1849 3.40019 35.7173 16.8706 26.8631 27.267C23.3652 31.3766 14.9898 31.1239 14.9898 31.1239C13.6994 32.7465 11.4432 35.0133 11.4432 35.0133H11.4351Z" stroke="#292C38" stroke-miterlimit="10"/>
<path d="M34.9707 30.1209V25.5792C34.9707 25.5792 48.4591 23.8994 45.6023 11.1955C43.898 3.62038 40.0187 0.929553 34.1672 0.130459C22.229 -1.48404 10.6965 11.9782 19.5508 22.3746C23.0487 26.4843 31.4241 26.2315 31.4241 26.2315C32.7145 27.8541 34.9707 30.1209 34.9707 30.1209Z" fill="#4A8BDF"/>
</g>
<path d="M55.456 29.0361H53.6495V10.7349H55.456V29.0361Z" fill="#292C38"/>
<path d="M74.0029 10.7349H75.9057V29.0361H74.0992V13.3132L74.2919 14.1205L68.7881 26.494H67.5115L61.9836 14.3735L62.1763 13.3132V29.0241H60.3698V10.7349H62.2726L68.1498 23.9518L74.0029 10.7349Z" fill="#292C38"/>
<path d="M80.4341 10.7349H82.2406V29.0361H80.4341V10.7349ZM81.7589 20.253H87.612C88.3225 20.253 88.9488 20.0843 89.5028 19.759C90.0447 19.4337 90.4662 18.9759 90.7673 18.3855C91.0684 17.7952 91.2129 17.1205 91.2129 16.3494C91.2129 15.5783 91.0684 14.8795 90.7673 14.2891C90.4662 13.6988 90.0447 13.2409 89.5028 12.9156C88.9608 12.5903 88.3346 12.4217 87.612 12.4217H81.7589V10.7349H87.5156C88.6116 10.7349 89.563 10.9638 90.394 11.4337C91.225 11.9036 91.8633 12.5542 92.3209 13.3976C92.7786 14.2409 93.0074 15.2289 93.0074 16.3373C93.0074 17.4458 92.7786 18.4217 92.3209 19.265C91.8633 20.1084 91.225 20.759 90.394 21.2289C89.563 21.6988 88.5995 21.9277 87.5156 21.9277H81.7589V20.2409V20.253Z" fill="#4A8BDF"/>
<path d="M96.223 10.7229H98.0295V29.0361H96.223V10.7229ZM97.343 19.6024H103.582C104.256 19.6024 104.858 19.4578 105.376 19.1566C105.894 18.8554 106.291 18.4337 106.568 17.8915C106.845 17.3494 106.99 16.7108 107.002 16C107.002 15.2891 106.857 14.6626 106.58 14.1084C106.303 13.5542 105.906 13.1446 105.388 12.8433C104.87 12.5421 104.268 12.3976 103.582 12.3976H97.343V10.7108H103.485C104.545 10.7108 105.472 10.9277 106.267 11.3614C107.074 11.7952 107.688 12.4217 108.134 13.2168C108.58 14.012 108.796 14.9397 108.796 15.9879C108.796 17.0361 108.58 17.9638 108.134 18.759C107.688 19.5542 107.074 20.1807 106.267 20.6144C105.46 21.0482 104.533 21.265 103.485 21.265H97.343V19.5783V19.6024ZM103.208 20.7229L104.882 20.1445L109.567 29.0241H107.399L103.208 20.7229Z" fill="#4A8BDF"/>
<path d="M115.083 28.4337C114.119 27.9036 113.397 27.1325 112.891 26.1325C112.385 25.1325 112.132 23.9036 112.132 22.4819V17.3012C112.132 15.8795 112.385 14.6626 112.891 13.6506C113.397 12.6385 114.132 11.8795 115.083 11.3494C116.046 10.8193 117.203 10.5542 118.564 10.5542C119.924 10.5542 121.081 10.8193 122.044 11.3494C123.008 11.8795 123.73 12.6506 124.236 13.6506C124.742 14.6626 124.995 15.8795 124.995 17.3012V22.4819C124.995 23.9036 124.742 25.1205 124.236 26.1325C123.73 27.1446 122.995 27.9036 122.044 28.4337C121.081 28.9638 119.924 29.2289 118.564 29.2289C117.203 29.2289 116.046 28.9638 115.083 28.4337ZM121.056 26.9518C121.743 26.5662 122.273 26 122.634 25.253C122.995 24.506 123.176 23.6144 123.176 22.5662V17.2048C123.176 16.1566 122.995 15.265 122.634 14.5181C122.273 13.7711 121.743 13.2048 121.056 12.8193C120.37 12.4337 119.527 12.2289 118.564 12.2289C117.6 12.2289 116.757 12.4217 116.071 12.8193C115.384 13.2168 114.854 13.7711 114.493 14.5181C114.132 15.265 113.951 16.1566 113.951 17.2048V22.5662C113.951 23.6144 114.132 24.506 114.493 25.253C114.854 26 115.384 26.5662 116.071 26.9518C116.757 27.3373 117.6 27.5422 118.564 27.5422C119.527 27.5422 120.37 27.3494 121.056 26.9518Z" fill="#4A8BDF"/>
<path d="M127.247 10.7349H129.162L134.437 26.4699L139.712 10.7349H141.627L135.292 29.0361H133.606L127.271 10.7349H127.247Z" fill="#292C38"/>
<defs>
<clipPath id="clip0_508_83">
<rect width="46" height="36" fill="white"/>
</clipPath>
</defs>
</svg>
