<svg width="48" height="48" viewBox="0 0 48 48" fill="none" xmlns="http://www.w3.org/2000/svg">
<g filter="url(#filter0_d_371_9372)">
<rect x="4" width="40" height="40" rx="20" fill="#e0adad"/>
<rect x="4.5" y="0.5" width="39" height="39" rx="19.5" stroke="#e0adad"/>
<path d="M24 10C23.2044 10 22.4413 10.3161 21.8787 10.8787C21.3161 11.4413 21 12.2044 21 13V20C21 20.7957 21.3161 21.5587 21.8787 22.1213C22.4413 22.6839 23.2044 23 24 23C24.7956 23 25.5587 22.6839 26.1213 22.1213C26.6839 21.5587 27 20.7957 27 20V13C27 12.2044 26.6839 11.4413 26.1213 10.8787C25.5587 10.3161 24.7956 10 24 10Z" stroke="white" stroke-width="2" stroke-linecap="round" stroke-linejoin="round"/>
<path d="M31 18V20C31 21.8565 30.2625 23.637 28.9497 24.9497C27.637 26.2625 25.8565 27 24 27C22.1435 27 20.363 26.2625 19.0503 24.9497C17.7375 23.637 17 21.8565 17 20V18" stroke="white" stroke-width="2" stroke-linecap="round" stroke-linejoin="round"/>
<path d="M24 27V30" stroke="white" stroke-width="2" stroke-linecap="round" stroke-linejoin="round"/>
</g>
<defs>
<filter id="filter0_d_371_9372" x="0" y="0" width="48" height="48" filterUnits="userSpaceOnUse" color-interpolation-filters="sRGB">
<feFlood flood-opacity="0" result="BackgroundImageFix"/>
<feColorMatrix in="SourceAlpha" type="matrix" values="0 0 0 0 0 0 0 0 0 0 0 0 0 0 0 0 0 0 127 0" result="hardAlpha"/>
<feOffset dy="4"/>
<feGaussianBlur stdDeviation="2"/>
<feComposite in2="hardAlpha" operator="out"/>
<feColorMatrix type="matrix" values="0 0 0 0 0 0 0 0 0 0 0 0 0 0 0 0 0 0 0.25 0"/>
<feBlend mode="normal" in2="BackgroundImageFix" result="effect1_dropShadow_371_9372"/>
<feBlend mode="normal" in="SourceGraphic" in2="effect1_dropShadow_371_9372" result="shape"/>
</filter>
</defs>
</svg>
